<?xml version="1.0" encoding="iso-8859-1"?>
<!-- Generator: Adobe Illustrator 19.0.0, SVG Export Plug-In . SVG Version: 6.00 Build 0)  -->
<svg version="1.1" id="Capa_1" xmlns="http://www.w3.org/2000/svg" xmlns:xlink="http://www.w3.org/1999/xlink" x="0px" y="0px"
	 viewBox="0 0 512 512" style="enable-background:new 0 0 512 512;" xml:space="preserve">
<path style="fill:#C78A62;" d="M253.225,397.39L70.629,421.299l0,0C82.876,474.39,130.149,512,184.634,512h137.18
	c54.485,0,101.758-37.61,114.005-90.701l0,0L253.225,397.39z"/>
<path style="fill:#AC7756;" d="M111.836,421.299L111.836,421.299l161.992-21.211l-20.604-2.698L70.629,421.299l0,0
	C82.876,474.39,130.149,512,184.634,512h41.207C171.356,512,124.083,474.39,111.836,421.299z"/>
<path style="fill:#593F51;" d="M305.733,360.949c-8.666,0-15.692-7.026-15.692-15.692s7.026-15.692,15.692-15.692
	c48.108,0,79.508-6.671,93.329-19.828c9.329-8.882,10.001-20.206,9.998-37.804v-0.731c0-8.666,7.026-15.692,15.692-15.692
	c8.666,0,15.692,7.026,15.692,15.692v0.725c0.003,17.615,0.008,41.739-19.741,60.541
	C400.29,351.897,363.759,360.949,305.733,360.949z"/>
<path style="fill:#543A50;" d="M377.164,321.464c-16.864,5.382-40.742,8.1-71.431,8.1c-8.666,0-15.692,7.026-15.692,15.692
	c0,8.666,7.026,15.692,15.692,15.692c23.008,0,42.625-1.429,59.209-4.358C369.337,346.102,373.549,334.366,377.164,321.464z"/>
<path style="fill:#6E5166;" d="M376.262,149.914l-21.159-23.158l-17.633,23.158c0,20.595-7.653,31.44-17.219,36.952
	c-16.234,9.353-37.032,1.884-44.505-15.297c-6.259-14.392-14.325-29.342-24.502-44.813l-35.208-35.287l-27.559,35.287
	c48.83,74.227,49.032,136.478,34.504,182.491c-39.188-1.592-67.64-12.315-84.645-31.954c-22.671-26.182-17.934-61.089-17.899-61.337
	l-36.176-5.65c-0.325,2.076-7.554,51.294,26,90.494c21.58,25.213,54.242,39.99,97.295,44.092
	c-18.843,33.842-42.002,52.497-42.002,52.497h140.548c0,0,35.621-41.326,47.631-112.564l-24.198-22.753
	C370.092,217.562,376.262,149.914,376.262,149.914z"/>
<path style="fill:#3E9073;" d="M376.297,126.756c2.542-7.118,3.938-14.781,3.938-22.772c0-37.381-30.303-67.684-67.684-67.684
	c-5.899,0-11.619,0.758-17.074,2.176C284.573,15.719,261.326,0,234.406,0c-35.19,0-64.098,26.857-67.367,61.191
	c-6.624-5.371-15.061-8.594-24.255-8.594c-19.792,0-36.09,14.919-38.286,34.123c-6.109-3.11-13.017-4.875-20.342-4.875
	c-24.804,0-44.912,20.108-44.912,44.912h337.052V126.756z"/>
<g>
	<path style="fill:#37835E;" d="M325.961,37.634c0.14,0.281,0.286,0.558,0.421,0.842c0.53-0.137,1.063-0.263,1.597-0.388
		C327.308,37.931,326.64,37.771,325.961,37.634z"/>
	<path style="fill:#37835E;" d="M99.588,84.582c-4.812-1.766-10.006-2.738-15.431-2.738c-24.804,0-44.912,20.108-44.912,44.912
		H70.15C70.151,107.39,82.408,90.888,99.588,84.582z"/>
</g>
<path style="fill:#6CB89C;" d="M192.792,227.559c0-17.162-13.913-31.074-31.074-31.074c-4.154,0-8.113,0.821-11.735,2.299
	c-7.574-18.632-25.846-31.774-47.198-31.774c-20.744,0-38.579,12.406-46.524,30.198c-2.362-0.473-4.804-0.724-7.304-0.724
	c-20.46,0-37.047,16.587-37.047,37.047h180.303C192.589,231.598,192.792,229.603,192.792,227.559z"/>
<path style="fill:#45A97A;" d="M52.705,196.674c-1.232-0.125-2.483-0.191-3.748-0.191c-20.46,0-37.047,16.587-37.047,37.047h23.694
	C35.604,218.753,42.249,205.533,52.705,196.674z"/>
<path style="fill:#6CB89C;" d="M456.611,114.566c-5.14,0-10.017,1.105-14.424,3.078c-2.798-23.676-22.925-42.044-47.353-42.044
	c-24.429,0-44.555,18.368-47.353,42.044c-4.406-1.973-9.284-3.078-14.424-3.078c-19.523,0-35.349,15.826-35.349,35.349H491.96
	C491.959,130.392,476.133,114.566,456.611,114.566z"/>
<path style="fill:#45A97A;" d="M345.931,116.998c-3.99-1.564-8.329-2.431-12.874-2.431c-19.523,0-35.349,15.827-35.349,35.349
	h25.755C323.462,134.939,332.78,122.148,345.931,116.998z"/>
<path style="fill:#6CB89C;" d="M500.09,285.409c0-16.127-13.074-29.203-29.203-29.203c-1.616,0-3.201,0.137-4.746,0.39
	c0.066-1.076,0.11-2.157,0.11-3.249c0-28.882-23.413-52.295-52.295-52.295c-21.001,0-39.099,12.385-47.419,30.244
	c-5.729-4.05-12.717-6.437-20.266-6.437c-19.419,0-35.161,15.742-35.161,35.161c0,0.135,0.008,0.268,0.01,0.403
	c-4.411-2.675-9.586-4.216-15.122-4.216c-16.128,0-29.203,13.074-29.203,29.203H500.09V285.409z"/>
<path style="fill:#45A97A;" d="M307.317,258.493c-3.482-1.466-7.303-2.286-11.319-2.286c-16.128,0-29.203,13.074-29.203,29.202
	h22.664C289.461,273.304,296.825,262.921,307.317,258.493z"/>
<path style="fill:#B87F5A;" d="M449.572,386.035H56.877c-9.738,0-17.633,7.894-17.633,17.633l0,0
	c0,9.738,7.894,17.633,17.633,17.633h392.694c9.738,0,17.633-7.894,17.633-17.633l0,0
	C467.204,393.929,459.309,386.035,449.572,386.035z"/>
<path style="fill:#9D6C4E;" d="M90.755,403.666L90.755,403.666c0-9.738,7.894-17.633,17.633-17.633H56.878
	c-9.738,0-17.633,7.894-17.633,17.633l0,0c0,9.738,7.894,17.633,17.633,17.633h51.509C98.648,421.299,90.755,413.404,90.755,403.666
	z"/>
<g>
</g>
<g>
</g>
<g>
</g>
<g>
</g>
<g>
</g>
<g>
</g>
<g>
</g>
<g>
</g>
<g>
</g>
<g>
</g>
<g>
</g>
<g>
</g>
<g>
</g>
<g>
</g>
<g>
</g>
</svg>
