<svg id="Layer" enable-background="new 0 0 64 64" viewBox="0 0 64 64" xmlns="http://www.w3.org/2000/svg">
  <path stroke="black" fill="white" d="m47.836 17.176c-.873-5.198-5.393-9.176-10.836-9.176-3.197 0-6.172 1.379-8.244 3.74-1.587-.496-3.263-.758-4.983-.738-8.697.121-15.773 7.494-15.773 16.436v1.562c0 1.104.896 2 2 2h8v1c0 3.309 2.691 6 6 6h6v3h-12c-1.104 0-2 .896-2 2s.896 2 2 2h1.331l.656 3.61c.779 4.282 4.503 7.39 8.855 7.39h6.316c4.352 0 8.076-3.108 8.854-7.39l.657-3.61h1.331c1.104 0 2-.896 2-2s-.896-2-2-2h-12v-3h6c3.309 0 6-2.691 6-6v-1h8c1.104 0 2-.896 2-2v-2c0-4.886-3.525-8.958-8.164-9.824zm-7.759 30.719c-.432 2.378-2.501 4.105-4.919 4.105h-6.316c-2.418 0-4.486-1.727-4.919-4.105l-.526-2.895h17.207zm-16.077-13.895c-1.103 0-2-.897-2-2v-1h8v3zm18-2c0 1.103-.897 2-2 2h-6v-3h8zm-29.993-5c.223-6.568 5.44-11.91 11.821-11.999 4.728-.066 9.086 2.676 11.076 6.987.462 1.002 1.65 1.439 2.654.978 1.002-.463 1.44-1.651.978-2.654-1.308-2.833-3.379-5.151-5.899-6.767 1.222-.982 2.746-1.545 4.363-1.545 3.86 0 7 3.14 7 7 0 1.104.896 2 2 2 3.309 0 6 2.691 6 6z"/>
</svg>