<?xml version="1.0" encoding="UTF-8"?>
<!DOCTYPE svg PUBLIC "-//W3C//DTD SVG 1.1//EN" "http://www.w3.org/Graphics/SVG/1.1/DTD/svg11.dtd">
<svg version="1.2" width="68mm" height="68mm" viewBox="0 0 6800 6800" preserveAspectRatio="xMidYMid" fill-rule="evenodd" stroke-width="28.222" stroke-linejoin="round" xmlns="http://www.w3.org/2000/svg" xmlns:ooo="http://xml.openoffice.org/svg/export" xmlns:xlink="http://www.w3.org/1999/xlink" xmlns:presentation="http://sun.com/xmlns/staroffice/presentation" xmlns:smil="http://www.w3.org/2001/SMIL20/" xmlns:anim="urn:oasis:names:tc:opendocument:xmlns:animation:1.0" xml:space="preserve">
 <defs class="ClipPathGroup">
  <clipPath id="presentation_clip_path" clipPathUnits="userSpaceOnUse">
   <rect x="0" y="0" width="6800" height="6800"/>
  </clipPath>
  <clipPath id="presentation_clip_path_shrink" clipPathUnits="userSpaceOnUse">
   <rect x="6" y="6" width="6787" height="6787"/>
  </clipPath>
 </defs>
 <defs class="TextShapeIndex">
  <g ooo:slide="id1" ooo:id-list="id3 id4 id5 id6 id7 id8 id9 id10 id11 id12 id13 id14 id15 id16 id17 id18 id19 id20 id21 id22 id23 id24 id25 id26 id27 id28 id29 id30 id31 id32 id33 id34 id35 id36 id37 id38 id39 id40 id41 id42 id43 id44 id45 id46 id47 id48 id49 id50 id51 id52 id53"/>
 </defs>
 <defs class="EmbeddedBulletChars">
  <g id="bullet-char-template-57356" transform="scale(0.00048828125,-0.00048828125)">
   <path d="M 580,1141 L 1163,571 580,0 -4,571 580,1141 Z"/>
  </g>
  <g id="bullet-char-template-57354" transform="scale(0.00048828125,-0.00048828125)">
   <path d="M 8,1128 L 1137,1128 1137,0 8,0 8,1128 Z"/>
  </g>
  <g id="bullet-char-template-10146" transform="scale(0.00048828125,-0.00048828125)">
   <path d="M 174,0 L 602,739 174,1481 1456,739 174,0 Z M 1358,739 L 309,1346 659,739 1358,739 Z"/>
  </g>
  <g id="bullet-char-template-10132" transform="scale(0.00048828125,-0.00048828125)">
   <path d="M 2015,739 L 1276,0 717,0 1260,543 174,543 174,936 1260,936 717,1481 1274,1481 2015,739 Z"/>
  </g>
  <g id="bullet-char-template-10007" transform="scale(0.00048828125,-0.00048828125)">
   <path d="M 0,-2 C -7,14 -16,27 -25,37 L 356,567 C 262,823 215,952 215,954 215,979 228,992 255,992 264,992 276,990 289,987 310,991 331,999 354,1012 L 381,999 492,748 772,1049 836,1024 860,1049 C 881,1039 901,1025 922,1006 886,937 835,863 770,784 769,783 710,716 594,584 L 774,223 C 774,196 753,168 711,139 L 727,119 C 717,90 699,76 672,76 641,76 570,178 457,381 L 164,-76 C 142,-110 111,-127 72,-127 30,-127 9,-110 8,-76 1,-67 -2,-52 -2,-32 -2,-23 -1,-13 0,-2 Z"/>
  </g>
  <g id="bullet-char-template-10004" transform="scale(0.00048828125,-0.00048828125)">
   <path d="M 285,-33 C 182,-33 111,30 74,156 52,228 41,333 41,471 41,549 55,616 82,672 116,743 169,778 240,778 293,778 328,747 346,684 L 369,508 C 377,444 397,411 428,410 L 1163,1116 C 1174,1127 1196,1133 1229,1133 1271,1133 1292,1118 1292,1087 L 1292,965 C 1292,929 1282,901 1262,881 L 442,47 C 390,-6 338,-33 285,-33 Z"/>
  </g>
  <g id="bullet-char-template-9679" transform="scale(0.00048828125,-0.00048828125)">
   <path d="M 813,0 C 632,0 489,54 383,161 276,268 223,411 223,592 223,773 276,916 383,1023 489,1130 632,1184 813,1184 992,1184 1136,1130 1245,1023 1353,916 1407,772 1407,592 1407,412 1353,268 1245,161 1136,54 992,0 813,0 Z"/>
  </g>
  <g id="bullet-char-template-8226" transform="scale(0.00048828125,-0.00048828125)">
   <path d="M 346,457 C 273,457 209,483 155,535 101,586 74,649 74,723 74,796 101,859 155,911 209,963 273,989 346,989 419,989 480,963 531,910 582,859 608,796 608,723 608,648 583,586 532,535 482,483 420,457 346,457 Z"/>
  </g>
  <g id="bullet-char-template-8211" transform="scale(0.00048828125,-0.00048828125)">
   <path d="M -4,459 L 1135,459 1135,606 -4,606 -4,459 Z"/>
  </g>
  <g id="bullet-char-template-61548" transform="scale(0.00048828125,-0.00048828125)">
   <path d="M 173,740 C 173,903 231,1043 346,1159 462,1274 601,1332 765,1332 928,1332 1067,1274 1183,1159 1299,1043 1357,903 1357,740 1357,577 1299,437 1183,322 1067,206 928,148 765,148 601,148 462,206 346,322 231,437 173,577 173,740 Z"/>
  </g>
 </defs>
 <defs class="TextEmbeddedBitmaps"/>
 <g>
  <g id="id2" class="Master_Slide">
   <g id="bg-id2" class="Background"/>
   <g id="bo-id2" class="BackgroundObjects"/>
  </g>
 </g>
 <g class="SlideGroup">
  <g>
   <g id="container-id1">
    <g id="id1" class="Slide" clip-path="url(#presentation_clip_path)">
     <g class="Page">
      <g class="com.sun.star.drawing.ClosedBezierShape">
       <g id="id3">
        <rect class="BoundingBox" stroke="none" fill="none" x="8" y="8" width="6794" height="6794"/>
        <path fill="rgb(56,43,115)" stroke="none" d="M 6800,3405 C 6800,4030 6658,4561 6345,5103 6032,5644 5644,6032 5103,6345 4561,6658 4030,6800 3405,6800 2780,6800 2248,6658 1706,6345 1165,6032 777,5644 464,5103 151,4561 9,4030 9,3405 9,2780 151,2248 464,1706 777,1165 1165,777 1706,464 2248,151 2779,9 3404,9 4030,9 4561,151 5103,464 5644,777 6032,1165 6345,1706 6658,2248 6800,2779 6800,3404 L 6800,3405 Z"/>
       </g>
      </g>
      <g class="com.sun.star.drawing.ClosedBezierShape">
       <g id="id4">
        <rect class="BoundingBox" stroke="none" fill="none" x="466" y="466" width="5878" height="5878"/>
        <path fill="rgb(71,48,128)" stroke="none" d="M 6342,3405 C 6342,3946 6219,4405 5949,4874 5678,5342 5342,5678 4874,5949 4405,6219 3946,6342 3405,6342 2864,6342 2404,6219 1935,5949 1467,5678 1131,5342 860,4874 590,4405 467,3946 467,3405 467,2864 590,2404 860,1935 1131,1467 1467,1131 1935,860 2404,590 2863,467 3404,467 3946,467 4405,590 4874,860 5342,1131 5678,1467 5949,1935 6219,2404 6342,2863 6342,3404 L 6342,3405 Z"/>
       </g>
      </g>
      <g class="com.sun.star.drawing.ClosedBezierShape">
       <g id="id5">
        <rect class="BoundingBox" stroke="none" fill="none" x="1509" y="2084" width="3792" height="3125"/>
        <path fill="rgb(56,43,115)" stroke="none" d="M 5299,3337 C 5297,3295 5273,3261 5239,3243 5237,3243 5236,3242 5234,3241 5232,3239 5229,3238 5226,3237 5214,3233 5201,3231 5187,3231 L 3756,3231 3756,2197 C 3756,2195 3756,2192 3756,2190 3753,2149 3729,2115 3694,2097 3690,2095 3685,2092 3679,2090 3677,2090 3676,2089 3674,2089 3664,2086 3653,2085 3644,2085 L 1622,2085 C 1610,2085 1600,2086 1589,2089 1588,2089 1587,2090 1586,2090 1580,2092 1574,2095 1569,2098 1568,2098 1566,2099 1565,2100 1563,2101 1562,2101 1561,2102 1560,2102 1559,2103 1558,2104 1557,2105 1556,2105 1555,2106 1551,2110 1546,2114 1542,2117 1539,2120 1536,2125 1532,2128 1532,2129 1531,2130 1530,2131 1529,2132 1528,2133 1528,2135 1527,2135 1527,2136 1526,2138 1515,2155 1510,2174 1510,2197 L 1510,2415 1510,2415 1510,3950 C 1510,4011 1559,4062 1622,4062 L 3053,4062 3053,5096 C 3053,5157 3104,5208 3165,5208 L 5187,5208 C 5250,5208 5299,5157 5299,5096 L 5299,3343 C 5299,3341 5299,3338 5299,3337 Z"/>
       </g>
      </g>
      <g class="com.sun.star.drawing.ClosedBezierShape">
       <g id="id6">
        <rect class="BoundingBox" stroke="none" fill="none" x="4081" y="1799" width="1083" height="1174"/>
        <path fill="rgb(56,43,115)" stroke="none" d="M 4205,2397 C 4205,2398 4205,2399 4205,2400 4206,2400 4206,2401 4206,2401 4206,2402 4206,2403 4206,2405 L 4206,2406 C 4206,2407 4206,2408 4206,2411 4206,2411 4206,2411 4206,2412 4206,2413 4206,2414 4206,2416 L 4206,2416 C 4206,2417 4206,2419 4207,2420 L 4207,2421 C 4207,2422 4207,2425 4207,2426 L 4207,2426 4097,2559 C 4093,2564 4090,2571 4087,2577 L 4087,2577 4087,2577 C 4087,2578 4086,2579 4086,2580 L 4086,2582 C 4086,2583 4084,2584 4084,2585 L 4084,2585 C 4084,2586 4083,2587 4083,2588 L 4083,2589 C 4082,2591 4082,2593 4082,2596 4082,2597 4082,2597 4082,2597 4082,2599 4082,2601 4082,2604 L 4082,2604 C 4082,2607 4082,2610 4082,2612 4082,2612 4082,2612 4082,2613 4082,2614 4082,2615 4082,2616 4082,2616 4082,2616 4083,2616 4083,2617 4083,2618 4083,2619 L 4083,2620 C 4084,2621 4084,2622 4084,2623 L 4084,2623 C 4086,2625 4086,2626 4086,2627 4086,2627 4086,2628 4087,2628 4087,2629 4087,2630 4088,2631 L 4088,2631 C 4088,2632 4089,2633 4089,2634 4089,2634 4089,2634 4090,2635 4090,2636 4091,2637 4091,2639 L 4138,2720 C 4152,2745 4181,2758 4209,2754 L 4380,2726 C 4388,2731 4396,2736 4405,2742 L 4405,2742 C 4408,2744 4410,2745 4413,2747 L 4413,2747 C 4417,2749 4419,2750 4422,2752 L 4422,2752 C 4431,2757 4440,2761 4449,2765 L 4449,2765 4510,2927 C 4520,2955 4546,2972 4575,2972 L 4669,2972 C 4698,2972 4724,2955 4734,2927 L 4795,2765 4795,2765 C 4805,2761 4813,2757 4822,2752 L 4822,2752 C 4825,2750 4828,2749 4831,2747 L 4831,2747 C 4834,2745 4837,2744 4839,2742 L 4839,2742 C 4848,2736 4856,2731 4864,2726 L 5035,2754 C 5063,2758 5092,2745 5106,2720 L 5153,2639 C 5154,2637 5154,2636 5155,2635 L 5155,2634 C 5156,2633 5156,2632 5157,2631 L 5157,2631 C 5157,2630 5157,2629 5158,2628 L 5158,2627 C 5158,2626 5160,2625 5160,2623 L 5160,2623 C 5160,2622 5161,2621 5161,2620 L 5161,2619 C 5161,2618 5162,2617 5162,2616 L 5162,2616 C 5162,2615 5162,2614 5162,2613 5162,2612 5162,2612 5162,2612 5163,2610 5163,2607 5163,2604 L 5163,2604 C 5163,2601 5163,2599 5162,2597 5162,2597 5162,2597 5162,2596 5162,2593 5162,2591 5161,2589 L 5161,2588 C 5161,2587 5161,2586 5160,2585 L 5160,2585 C 5160,2584 5160,2583 5158,2582 L 5158,2580 C 5158,2579 5157,2578 5157,2577 L 5157,2577 5157,2577 C 5155,2571 5151,2564 5147,2559 L 5037,2426 5037,2426 C 5037,2425 5038,2422 5038,2421 L 5038,2420 C 5038,2419 5038,2417 5038,2416 L 5038,2416 C 5038,2414 5038,2413 5038,2412 5038,2411 5038,2411 5038,2411 5038,2408 5038,2407 5039,2406 L 5039,2405 C 5039,2403 5039,2402 5039,2401 L 5039,2400 C 5039,2399 5039,2398 5039,2397 5039,2394 5039,2393 5039,2392 L 5039,2391 C 5039,2389 5039,2388 5039,2386 5039,2384 5039,2383 5039,2381 L 5039,2379 C 5039,2378 5039,2377 5039,2376 L 5039,2376 5039,2376 5039,2375 C 5039,2374 5039,2373 5039,2372 L 5039,2371 C 5039,2370 5039,2369 5039,2368 L 5039,2368 C 5039,2368 5039,2368 5039,2367 L 5039,2365 C 5038,2364 5038,2363 5038,2361 5038,2361 5038,2361 5038,2360 5038,2359 5038,2358 5038,2356 L 5038,2356 C 5038,2355 5038,2353 5038,2351 L 5038,2350 C 5037,2349 5037,2347 5037,2346 L 5037,2346 5039,2344 5039,2344 5147,2213 C 5148,2212 5148,2211 5149,2211 L 5149,2210 5150,2209 5150,2207 C 5151,2207 5151,2206 5151,2206 L 5152,2205 5152,2204 C 5153,2204 5153,2203 5153,2203 5153,2203 5153,2202 5154,2202 L 5154,2201 5155,2200 5155,2199 5156,2198 C 5156,2197 5156,2197 5156,2197 5156,2196 5157,2195 5157,2195 L 5157,2193 5158,2192 C 5158,2191 5158,2191 5158,2191 5158,2190 5158,2190 5160,2190 5160,2189 5160,2189 5160,2188 5160,2188 5160,2188 5160,2187 5160,2187 5160,2187 5161,2186 5161,2186 5161,2186 5161,2185 L 5161,2184 5161,2183 C 5161,2183 5161,2182 5162,2182 5162,2181 5162,2181 5162,2181 5162,2179 5162,2179 5162,2178 L 5162,2178 C 5162,2176 5163,2173 5163,2170 L 5163,2170 C 5163,2169 5163,2169 5163,2168 L 5163,2168 C 5163,2167 5163,2166 5163,2166 L 5163,2164 C 5163,2164 5163,2163 5162,2162 L 5162,2162 C 5162,2162 5162,2161 5162,2160 L 5162,2160 C 5162,2156 5161,2152 5158,2147 L 5158,2147 C 5158,2146 5158,2145 5158,2145 L 5158,2145 C 5157,2144 5157,2143 5157,2143 5157,2143 5157,2143 5157,2142 L 5157,2142 C 5156,2140 5154,2136 5153,2133 L 5106,2053 C 5092,2027 5063,2014 5035,2018 L 4864,2046 C 4853,2039 4842,2031 4831,2025 L 4831,2025 C 4819,2018 4807,2012 4795,2006 L 4795,2006 4734,1845 C 4724,1818 4698,1800 4669,1800 L 4575,1800 C 4546,1800 4520,1818 4510,1845 L 4449,2006 4449,2006 C 4437,2012 4425,2018 4413,2025 L 4413,2025 C 4402,2031 4391,2039 4380,2046 L 4209,2018 C 4181,2014 4152,2027 4138,2053 L 4091,2133 C 4089,2136 4088,2140 4087,2142 L 4087,2142 C 4087,2143 4087,2143 4087,2143 4087,2143 4087,2144 4086,2145 L 4086,2145 C 4086,2145 4086,2146 4084,2147 L 4084,2147 C 4083,2152 4082,2157 4081,2162 L 4081,2162 C 4081,2163 4081,2164 4081,2164 L 4081,2166 C 4081,2166 4081,2167 4081,2168 L 4081,2168 C 4081,2168 4081,2169 4081,2170 L 4081,2170 C 4081,2173 4082,2175 4082,2178 L 4082,2178 C 4082,2179 4082,2179 4082,2181 4082,2181 4082,2181 4082,2182 L 4083,2183 4083,2184 4083,2185 C 4083,2186 4083,2186 4083,2186 4083,2187 4084,2187 4084,2187 4084,2188 4084,2188 4084,2188 4084,2189 4084,2189 4084,2190 4084,2190 4086,2190 4086,2191 4086,2191 4086,2191 4086,2192 4086,2192 4086,2193 4087,2193 L 4087,2195 C 4087,2195 4087,2196 4088,2197 4088,2197 4088,2197 4088,2198 L 4089,2199 4089,2200 4090,2201 4090,2202 C 4091,2202 4091,2203 4091,2203 L 4091,2204 C 4092,2204 4092,2205 4092,2205 L 4093,2206 4093,2207 C 4094,2207 4094,2209 4094,2209 L 4095,2210 4095,2211 C 4096,2211 4096,2212 4097,2213 L 4205,2344 4205,2344 4207,2346 4207,2346 C 4207,2347 4206,2349 4206,2350 L 4206,2351 C 4206,2353 4206,2355 4206,2356 L 4206,2356 C 4206,2358 4206,2359 4206,2360 4206,2361 4206,2361 4206,2361 4206,2363 4205,2364 4205,2365 L 4205,2367 C 4205,2368 4205,2368 4205,2368 L 4205,2368 C 4205,2369 4205,2370 4205,2371 L 4205,2372 C 4205,2373 4205,2374 4205,2375 L 4205,2376 4205,2376 4205,2376 C 4205,2377 4205,2378 4205,2379 L 4205,2381 C 4205,2383 4205,2384 4205,2386 4205,2388 4205,2389 4205,2391 L 4205,2392 C 4205,2393 4205,2394 4205,2397 Z M 4448,2360 C 4448,2359 4448,2357 4448,2356 L 4448,2356 C 4448,2355 4449,2354 4449,2353 L 4449,2351 C 4449,2350 4449,2349 4450,2348 4450,2348 4450,2348 4450,2347 4450,2346 4450,2345 4450,2345 4450,2344 4451,2344 4451,2344 4451,2343 4451,2342 4451,2341 4451,2341 4451,2340 4452,2340 4452,2339 4452,2338 4452,2336 L 4452,2336 C 4454,2330 4456,2324 4459,2318 L 4459,2318 C 4460,2317 4460,2316 4461,2315 L 4461,2314 C 4461,2313 4462,2312 4462,2312 4462,2311 4462,2311 4463,2311 4463,2310 4463,2308 4464,2307 4464,2307 4464,2307 4464,2306 4465,2306 4465,2305 4465,2304 4466,2304 4466,2303 4466,2303 4466,2302 4467,2302 4467,2301 4467,2300 4468,2300 4468,2300 4468,2299 4469,2298 4469,2297 L 4469,2297 C 4470,2296 4470,2295 4471,2293 L 4471,2293 C 4475,2289 4477,2285 4480,2281 L 4480,2281 C 4481,2279 4481,2279 4482,2278 L 4482,2277 C 4483,2276 4483,2276 4484,2275 4484,2275 4484,2275 4485,2274 4485,2274 4487,2273 4487,2272 4488,2272 4488,2272 4488,2271 4489,2271 4489,2270 4490,2270 4490,2269 4490,2269 4491,2269 4491,2268 4492,2267 4492,2267 4492,2265 4493,2265 4493,2265 4494,2264 4494,2264 4495,2263 4495,2263 4495,2263 4496,2262 4496,2262 4497,2261 4497,2260 4498,2260 4498,2260 4498,2260 4499,2259 4499,2258 4501,2258 4501,2258 4501,2257 4502,2257 4503,2256 4504,2255 4505,2254 4506,2254 4506,2253 4506,2253 4507,2252 4508,2252 4508,2252 4508,2250 4509,2250 4509,2250 4510,2249 4510,2249 4511,2248 L 4512,2247 C 4513,2247 4513,2246 4514,2246 L 4516,2245 C 4517,2244 4517,2244 4518,2244 4518,2243 4519,2243 4519,2243 4520,2242 4520,2242 4521,2241 4521,2241 4522,2241 4522,2240 4523,2240 4523,2240 4524,2239 4524,2239 4525,2239 4525,2238 4526,2238 4527,2238 4527,2236 4528,2236 4528,2236 4530,2235 4530,2235 4531,2235 4531,2234 4532,2234 4532,2234 4533,2233 4533,2233 4534,2233 4535,2232 4535,2232 4536,2232 4536,2231 4537,2231 4538,2230 4539,2230 4540,2230 4540,2229 4541,2229 4542,2229 4542,2228 4544,2228 4544,2228 4545,2227 4546,2227 4546,2227 4547,2227 4547,2226 4548,2226 4548,2226 4549,2225 4550,2225 4550,2225 4551,2225 4551,2224 4552,2224 4552,2224 4553,2224 4554,2222 4554,2222 4555,2222 4555,2222 4556,2221 4557,2221 4557,2221 4559,2221 4559,2221 4560,2220 4561,2220 4561,2220 4562,2220 4562,2219 4563,2219 4564,2219 4564,2219 4565,2219 4565,2218 4566,2218 4567,2218 4567,2218 4568,2217 4569,2217 4569,2217 4570,2217 4570,2217 4571,2216 4573,2216 L 4574,2216 C 4576,2216 4577,2215 4578,2215 L 4578,2215 C 4579,2215 4581,2214 4582,2214 L 4583,2214 C 4584,2213 4585,2213 4587,2213 L 4588,2213 C 4589,2213 4590,2213 4590,2212 4591,2212 4592,2212 4592,2212 4593,2212 4594,2212 4594,2212 4595,2212 4596,2212 4596,2211 4597,2211 4598,2211 4598,2211 4599,2211 4599,2211 4600,2211 4602,2211 4603,2211 4603,2211 4604,2211 4604,2211 4605,2211 4606,2210 4607,2210 4607,2210 4608,2210 4608,2210 4609,2210 4610,2210 4610,2210 4611,2210 4612,2210 4612,2210 4613,2210 4614,2210 4616,2210 4617,2210 L 4618,2210 C 4619,2210 4621,2210 4622,2210 4623,2210 4625,2210 4626,2210 4627,2210 4627,2210 4628,2210 4628,2210 4630,2210 4631,2210 4632,2210 4632,2210 4633,2210 4634,2210 4634,2210 4635,2210 4636,2210 4636,2210 4637,2210 4638,2210 4638,2210 4639,2211 4640,2211 4640,2211 4641,2211 4642,2211 4642,2211 4643,2211 4645,2211 4645,2211 4646,2211 4647,2211 4647,2211 4648,2211 4649,2212 4649,2212 4650,2212 4651,2212 4651,2212 4652,2212 4653,2212 4653,2212 4654,2212 4654,2213 4655,2213 4656,2213 4657,2213 4657,2213 4659,2213 4659,2213 4660,2213 4661,2214 L 4662,2214 C 4664,2214 4665,2215 4666,2215 L 4666,2215 C 4667,2215 4669,2216 4670,2216 L 4671,2216 C 4673,2216 4674,2217 4675,2217 L 4676,2217 C 4677,2218 4678,2218 4678,2218 4679,2218 4679,2219 4680,2219 4681,2219 4681,2219 4682,2219 4682,2220 4683,2220 4684,2220 L 4685,2221 C 4686,2221 4688,2221 4688,2221 4689,2222 4689,2222 4690,2222 4691,2222 4691,2224 4692,2224 4692,2224 4693,2224 4694,2225 L 4695,2225 C 4696,2226 4696,2226 4697,2226 4698,2227 4698,2227 4699,2227 4699,2227 4700,2228 4702,2228 L 4703,2229 C 4704,2229 4704,2230 4705,2230 4706,2230 4707,2231 4708,2231 4708,2232 4709,2232 4710,2232 4710,2233 4711,2233 4711,2233 4712,2234 4712,2234 4713,2234 4713,2235 4714,2235 4716,2235 4716,2236 4717,2236 4717,2236 4718,2238 4718,2238 4719,2238 4719,2239 4720,2239 4720,2239 4721,2240 4721,2240 4722,2240 4722,2241 4723,2241 4723,2241 4724,2242 4724,2242 4725,2243 4725,2243 4726,2243 4726,2244 4727,2244 4727,2244 4728,2245 L 4729,2246 C 4731,2246 4731,2247 4732,2247 L 4733,2248 C 4734,2249 4734,2249 4735,2250 4735,2250 4736,2250 4736,2252 4737,2252 4737,2252 4738,2253 4738,2253 4738,2254 4739,2254 4740,2255 4741,2256 4743,2257 L 4743,2258 C 4745,2258 4745,2259 4746,2260 L 4747,2260 C 4747,2261 4748,2262 4749,2262 4749,2263 4749,2263 4749,2263 4750,2264 4751,2264 4751,2265 4751,2265 4752,2265 4752,2267 4753,2267 4753,2268 4754,2269 4754,2269 4754,2269 4754,2270 4755,2270 4756,2271 4756,2271 4756,2272 4757,2272 4757,2272 4757,2273 4759,2274 4760,2274 4760,2275 4760,2275 4760,2275 4761,2276 4761,2276 4762,2277 L 4762,2278 C 4763,2279 4764,2279 4764,2281 L 4764,2281 C 4767,2285 4770,2289 4772,2293 L 4772,2293 C 4774,2295 4774,2296 4775,2297 L 4775,2297 C 4776,2298 4776,2299 4777,2300 4777,2300 4777,2300 4777,2301 4777,2302 4778,2302 4778,2303 L 4779,2304 C 4779,2305 4780,2306 4780,2306 4780,2307 4780,2307 4780,2307 4781,2308 4781,2310 4782,2311 4782,2311 4782,2311 4782,2312 4782,2312 4783,2313 4783,2314 L 4783,2315 C 4784,2316 4784,2317 4785,2318 L 4785,2318 C 4788,2324 4790,2330 4792,2336 L 4792,2336 C 4792,2338 4792,2339 4793,2340 L 4793,2341 C 4793,2342 4793,2343 4794,2344 4794,2344 4794,2344 4794,2345 4794,2345 4794,2346 4794,2347 4795,2348 4795,2348 4795,2348 4795,2349 4795,2350 4795,2351 L 4795,2353 C 4796,2354 4796,2355 4796,2356 L 4796,2356 C 4796,2357 4796,2359 4797,2360 4798,2369 4798,2377 4798,2386 4798,2484 4720,2562 4622,2562 4524,2562 4446,2484 4446,2386 4446,2377 4446,2369 4448,2360 Z"/>
       </g>
      </g>
      <g class="com.sun.star.drawing.ClosedBezierShape">
       <g id="id7">
        <rect class="BoundingBox" stroke="none" fill="none" x="1646" y="4234" width="1082" height="1175"/>
        <path fill="rgb(56,43,115)" stroke="none" d="M 2712,4648 C 2712,4647 2713,4647 2713,4646 2713,4646 2714,4646 2714,4645 2714,4645 2714,4645 2715,4643 2715,4643 2715,4643 2715,4642 2715,4642 2716,4642 2716,4641 2716,4641 2716,4641 2717,4640 2717,4640 2717,4640 2717,4639 2717,4639 2718,4639 2718,4638 2718,4638 2718,4638 2718,4637 2719,4637 2719,4637 2719,4636 L 2719,4635 C 2720,4635 2720,4635 2720,4634 2720,4634 2720,4633 2721,4633 L 2721,4632 C 2721,4631 2721,4631 2722,4630 2722,4630 2722,4630 2722,4628 2722,4628 2722,4627 2723,4627 L 2723,4626 C 2723,4625 2723,4625 2723,4625 2723,4624 2725,4624 2725,4624 2725,4623 2725,4623 2725,4623 2725,4622 2725,4622 2725,4621 2725,4621 2725,4621 2726,4620 2726,4620 2726,4620 2726,4619 2726,4619 2726,4619 2726,4618 L 2726,4617 2726,4616 C 2727,4616 2727,4614 2727,4614 2727,4614 2727,4614 2727,4613 2727,4611 2727,4608 2727,4605 L 2727,4605 C 2727,4604 2727,4604 2727,4603 L 2727,4603 C 2727,4602 2727,4602 2727,4600 L 2727,4600 C 2727,4599 2727,4598 2727,4598 L 2727,4598 C 2727,4597 2727,4596 2727,4595 L 2727,4595 C 2727,4591 2726,4587 2723,4582 L 2723,4582 C 2723,4581 2723,4580 2723,4580 L 2723,4580 C 2722,4579 2722,4578 2722,4578 L 2722,4578 2722,4578 C 2721,4575 2719,4571 2718,4569 L 2671,4488 C 2657,4463 2628,4449 2600,4453 L 2429,4481 C 2427,4480 2424,4478 2421,4476 2420,4476 2420,4476 2420,4476 2418,4474 2415,4473 2413,4470 L 2413,4470 C 2406,4467 2401,4463 2396,4460 L 2396,4460 C 2392,4459 2389,4456 2387,4455 L 2387,4455 C 2381,4452 2375,4449 2369,4446 L 2369,4446 C 2365,4445 2362,4444 2360,4441 L 2299,4280 C 2289,4253 2262,4235 2234,4235 L 2140,4235 C 2111,4235 2085,4253 2075,4280 L 2014,4441 C 2011,4444 2007,4445 2005,4446 2004,4446 2004,4446 2004,4446 1999,4449 1992,4452 1987,4455 L 1987,4455 C 1984,4456 1981,4459 1978,4460 L 1978,4460 C 1972,4463 1967,4467 1961,4470 L 1961,4470 C 1958,4473 1956,4474 1953,4476 L 1953,4476 C 1949,4478 1947,4480 1944,4481 L 1774,4453 C 1745,4449 1717,4463 1702,4488 L 1656,4569 C 1654,4571 1653,4575 1652,4578 L 1652,4578 1652,4578 C 1652,4578 1651,4579 1651,4580 L 1651,4580 C 1651,4580 1651,4581 1649,4582 L 1649,4582 C 1648,4588 1647,4593 1646,4598 L 1646,4598 C 1646,4598 1646,4599 1646,4600 L 1646,4600 C 1646,4600 1646,4602 1646,4603 L 1646,4603 C 1646,4604 1646,4604 1646,4605 L 1646,4605 C 1646,4608 1646,4611 1647,4613 L 1647,4614 1647,4616 1647,4617 1647,4618 C 1648,4619 1648,4619 1648,4619 1648,4620 1648,4620 1648,4620 1648,4621 1648,4621 1648,4621 1648,4622 1648,4622 1649,4623 1649,4623 1649,4623 1649,4624 1649,4624 1649,4624 1649,4625 1649,4625 1649,4625 1651,4626 L 1651,4627 C 1651,4627 1651,4628 1652,4628 1652,4630 1652,4630 1652,4630 1652,4631 1652,4631 1653,4632 L 1653,4633 C 1653,4633 1653,4634 1654,4634 1654,4635 1654,4635 1654,4635 1654,4635 1654,4636 1655,4636 1655,4637 1655,4637 1655,4637 1655,4638 1656,4638 1656,4638 1656,4639 1656,4639 1656,4639 1657,4640 1657,4640 1657,4640 1657,4641 1657,4641 1658,4641 1658,4642 1658,4642 1658,4642 1658,4643 1659,4643 1659,4643 1659,4645 1659,4645 1660,4645 1660,4646 1660,4646 1660,4646 1661,4647 1661,4647 1662,4648 L 1770,4779 1770,4779 1772,4781 C 1772,4781 1772,4781 1772,4782 1771,4783 1771,4784 1771,4785 1771,4786 1771,4786 1771,4786 1771,4789 1771,4790 1771,4791 1771,4791 1771,4791 1771,4792 1771,4793 1771,4794 1771,4796 1770,4796 1770,4796 1770,4797 1770,4798 1770,4799 1770,4800 1770,4802 1770,4802 1770,4803 L 1770,4803 1770,4804 C 1770,4804 1770,4805 1770,4806 1770,4807 1770,4807 1770,4808 1770,4809 1770,4810 1770,4811 L 1770,4811 1770,4811 1770,4811 C 1770,4812 1770,4813 1770,4814 1770,4816 1770,4816 1770,4816 1770,4818 1770,4819 1770,4821 1770,4822 1770,4825 1770,4826 1770,4827 1770,4827 1770,4827 1770,4829 1770,4831 1770,4832 1770,4833 1770,4834 1770,4835 1770,4836 1770,4836 1770,4837 1770,4838 1770,4839 1770,4840 L 1770,4841 C 1770,4843 1770,4845 1770,4846 L 1770,4847 C 1771,4848 1771,4850 1771,4851 L 1771,4851 C 1771,4853 1771,4854 1771,4855 1771,4856 1771,4856 1771,4856 1771,4859 1771,4860 1772,4861 L 1772,4861 1662,4995 C 1657,5000 1654,5006 1652,5012 L 1652,5012 1652,5012 C 1651,5013 1651,5015 1651,5017 L 1649,5017 C 1649,5018 1649,5019 1648,5020 L 1648,5020 C 1648,5021 1648,5023 1648,5024 L 1647,5024 C 1647,5026 1647,5029 1646,5032 L 1646,5032 C 1646,5035 1646,5037 1646,5039 1646,5039 1646,5039 1646,5040 1646,5042 1646,5044 1646,5047 1646,5047 1646,5048 1647,5048 1647,5049 1647,5050 1647,5051 L 1647,5051 C 1647,5052 1647,5053 1648,5054 1648,5055 1648,5055 1648,5055 1648,5056 1648,5057 1649,5058 L 1649,5058 C 1649,5060 1649,5061 1651,5062 1651,5063 1651,5063 1651,5063 1651,5064 1652,5065 1652,5066 L 1652,5066 C 1653,5067 1653,5068 1654,5069 1654,5070 1654,5070 1654,5070 1654,5071 1655,5072 1656,5074 L 1702,5155 C 1717,5180 1745,5194 1774,5189 L 1944,5161 C 1953,5167 1961,5172 1969,5177 1970,5178 1970,5178 1970,5178 1972,5179 1975,5181 1978,5182 L 1978,5182 C 1981,5184 1984,5185 1987,5187 L 1987,5187 C 1996,5192 2004,5197 2014,5200 L 2014,5200 2074,5363 C 2085,5390 2111,5408 2140,5408 L 2233,5408 C 2262,5408 2288,5390 2299,5363 L 2359,5200 2359,5200 C 2369,5197 2377,5192 2387,5187 L 2387,5187 C 2389,5185 2392,5184 2396,5182 L 2396,5182 C 2398,5181 2401,5179 2404,5178 2404,5178 2404,5178 2404,5177 2413,5172 2420,5167 2429,5161 L 2599,5189 C 2628,5194 2656,5180 2671,5155 L 2718,5074 C 2718,5072 2719,5071 2719,5070 2719,5070 2719,5070 2720,5069 2720,5068 2721,5067 2721,5066 L 2721,5066 C 2721,5065 2722,5064 2722,5063 2722,5063 2722,5063 2722,5062 2723,5061 2723,5060 2725,5058 L 2725,5058 C 2725,5057 2725,5056 2725,5055 2725,5055 2726,5055 2726,5054 2726,5053 2726,5052 2726,5051 L 2726,5051 C 2726,5050 2727,5049 2727,5048 L 2727,5047 C 2727,5044 2727,5042 2727,5040 2727,5039 2727,5039 2727,5039 2727,5037 2727,5035 2727,5032 L 2727,5032 C 2727,5029 2726,5026 2726,5024 L 2726,5024 C 2725,5022 2725,5021 2725,5020 L 2725,5020 C 2725,5019 2723,5018 2723,5017 L 2723,5017 C 2722,5015 2722,5013 2721,5012 L 2721,5012 2721,5012 C 2719,5006 2716,5000 2712,4995 L 2602,4861 2602,4861 C 2602,4860 2602,4859 2602,4856 2602,4856 2602,4856 2602,4855 2602,4854 2602,4853 2602,4851 L 2602,4851 C 2603,4850 2603,4848 2603,4847 L 2603,4846 C 2603,4845 2603,4843 2603,4841 L 2603,4840 C 2603,4839 2603,4838 2603,4837 2603,4836 2603,4836 2603,4835 2603,4834 2603,4833 2603,4832 2603,4831 2603,4829 2603,4827 2603,4827 2603,4827 2603,4826 2603,4825 2603,4823 2603,4821 2603,4820 2603,4818 2603,4816 2603,4816 2603,4816 2603,4814 2603,4813 2603,4812 2603,4811 L 2603,4811 2603,4811 2603,4811 C 2603,4810 2603,4809 2603,4808 2603,4807 2603,4807 2603,4806 2603,4805 2603,4804 2603,4804 L 2603,4803 2603,4803 C 2603,4802 2603,4802 2603,4800 2603,4799 2603,4798 2603,4797 2603,4796 2603,4796 2603,4796 2603,4794 2603,4793 2602,4792 2602,4791 2602,4791 2602,4791 2602,4790 2602,4788 2602,4786 2602,4786 2602,4786 2602,4785 2602,4784 2602,4783 2602,4781 L 2602,4781 2603,4779 2603,4779 2712,4648 Z M 2012,4795 C 2012,4794 2013,4793 2013,4792 L 2013,4791 C 2013,4790 2013,4789 2013,4788 2014,4788 2014,4788 2014,4786 2014,4785 2014,4784 2014,4784 2014,4783 2014,4783 2014,4783 2015,4782 2015,4781 2015,4780 L 2015,4779 C 2016,4778 2016,4777 2016,4776 2016,4776 2016,4776 2016,4775 2017,4774 2017,4772 2017,4771 L 2017,4771 C 2019,4765 2021,4760 2024,4753 L 2024,4753 C 2025,4752 2025,4751 2025,4750 2026,4750 2026,4750 2026,4750 2026,4749 2027,4748 2027,4747 L 2027,4746 C 2028,4745 2028,4743 2028,4743 2029,4742 2029,4742 2029,4742 2029,4741 2030,4740 2030,4739 2030,4739 2030,4739 2031,4738 2031,4738 2031,4737 2032,4736 L 2032,4735 C 2033,4734 2033,4734 2034,4733 L 2034,4732 C 2035,4731 2035,4729 2037,4729 2037,4728 2037,4728 2037,4728 2039,4724 2042,4720 2045,4717 L 2045,4717 C 2045,4716 2046,4714 2047,4713 2047,4713 2047,4713 2047,4712 2048,4712 2048,4711 2049,4710 L 2049,4710 C 2050,4709 2050,4708 2052,4708 2052,4707 2053,4707 2053,4707 2053,4706 2054,4705 2054,4705 2055,4705 2055,4704 2055,4704 2056,4703 2056,4703 2057,4702 2057,4702 2057,4700 2058,4700 2058,4700 2059,4699 2059,4698 2060,4698 2060,4698 2060,4698 2061,4697 2061,4696 2062,4696 2062,4695 2063,4695 2063,4695 2064,4694 2064,4694 2066,4693 L 2066,4693 C 2068,4691 2069,4690 2070,4689 2070,4689 2071,4689 2071,4688 2072,4688 2072,4686 2073,4686 2073,4685 2074,4685 2074,4685 2075,4684 2075,4684 2076,4683 2076,4683 2077,4683 2077,4682 2077,4682 2078,4682 2080,4681 2080,4681 2080,4680 2081,4680 2081,4680 2082,4679 2083,4679 2083,4679 2083,4678 2084,4678 2085,4678 2085,4677 2086,4677 2086,4676 2087,4676 2087,4676 2088,4675 2088,4675 2089,4675 2089,4674 2090,4674 2090,4674 2091,4673 2091,4673 2092,4673 2092,4671 2093,4671 2093,4671 2095,4670 2096,4670 2096,4670 2097,4669 2097,4669 2098,4669 2098,4668 2099,4668 2099,4668 2100,4667 2100,4667 2101,4667 2102,4666 2103,4666 2104,4665 2104,4665 2105,4664 2106,4664 2106,4664 2107,4664 2107,4663 2109,4663 2110,4663 2110,4662 2111,4662 2111,4662 2112,4662 2113,4661 2113,4661 2114,4661 L 2115,4660 C 2116,4660 2117,4659 2117,4659 2118,4659 2118,4659 2119,4659 2120,4657 2120,4657 2121,4657 L 2123,4656 C 2124,4656 2125,4656 2125,4655 2126,4655 2126,4655 2127,4655 2128,4655 2128,4654 2129,4654 2130,4654 2130,4654 2131,4653 2131,4653 2132,4653 2133,4653 L 2134,4652 C 2135,4652 2136,4652 2138,4652 2138,4651 2139,4651 2139,4651 2140,4651 2142,4651 2143,4650 L 2143,4650 C 2144,4650 2145,4650 2147,4649 2147,4649 2147,4649 2148,4649 2149,4649 2150,4649 2150,4648 2152,4648 2152,4648 2153,4648 2154,4648 2154,4648 2155,4648 2156,4648 2156,4647 2157,4647 2158,4647 2158,4647 2159,4647 2160,4647 2160,4647 2161,4647 2162,4647 2162,4647 2163,4646 2164,4646 2164,4646 2166,4646 2167,4646 2167,4646 2168,4646 2169,4646 2169,4646 2170,4646 2171,4646 2171,4646 2172,4646 2173,4646 2173,4645 2174,4645 2175,4645 2175,4645 2176,4645 2177,4645 2177,4645 2178,4645 2179,4645 2181,4645 2181,4645 2182,4645 2182,4645 2183,4645 2184,4645 2185,4645 2187,4645 2188,4645 2190,4645 2191,4645 L 2192,4645 C 2193,4645 2195,4645 2196,4645 2197,4645 2197,4645 2198,4645 2198,4645 2199,4645 2200,4645 2201,4646 2201,4646 2202,4646 2202,4646 2203,4646 2204,4646 2205,4646 2205,4646 2206,4646 2206,4646 2207,4646 2209,4646 2210,4646 2210,4646 2211,4646 2211,4647 2212,4647 2213,4647 2213,4647 2214,4647 2215,4647 2215,4647 2216,4647 2217,4647 L 2218,4648 C 2219,4648 2220,4648 2221,4648 L 2222,4648 C 2224,4649 2225,4649 2226,4649 L 2227,4649 C 2228,4650 2230,4650 2231,4650 L 2231,4650 C 2232,4651 2233,4651 2235,4651 2235,4651 2236,4651 2236,4652 2238,4652 2239,4652 2239,4652 2240,4652 2240,4653 2241,4653 2242,4653 2242,4653 2243,4653 2244,4654 2244,4654 2245,4654 2245,4654 2246,4655 2247,4655 L 2248,4655 C 2249,4656 2250,4656 2250,4656 2252,4656 2252,4657 2253,4657 2254,4657 2254,4657 2255,4659 2255,4659 2256,4659 2257,4659 L 2258,4660 C 2259,4660 2259,4660 2260,4661 2261,4661 2261,4661 2262,4662 L 2263,4662 C 2264,4663 2265,4663 2265,4663 2267,4664 2267,4664 2268,4664 2269,4664 2269,4665 2270,4665 2271,4666 2272,4666 2273,4667 2273,4667 2274,4667 2274,4668 2275,4668 2276,4668 2276,4669 2277,4669 2277,4669 2278,4670 2278,4670 2279,4670 2279,4671 2281,4671 2281,4671 2282,4673 2282,4673 2283,4673 2284,4674 2284,4674 2285,4674 2285,4675 2286,4675 2286,4675 2287,4676 2287,4676 2288,4676 2288,4677 2289,4677 2289,4678 2290,4678 L 2291,4679 C 2292,4679 2292,4680 2293,4680 2293,4681 2295,4681 2295,4681 2296,4682 2296,4682 2297,4682 2297,4683 2298,4683 2298,4683 2299,4684 2299,4684 2300,4685 2300,4685 2301,4685 2301,4686 2301,4686 2302,4688 2303,4688 2303,4689 2303,4689 2304,4689 2305,4690 2306,4691 2307,4693 2308,4693 2308,4693 2308,4693 2310,4694 2310,4694 2311,4695 2311,4695 2311,4695 2312,4696 2312,4696 2313,4697 2313,4698 2314,4698 2314,4698 2314,4698 2315,4699 2315,4700 2316,4700 L 2317,4702 C 2317,4703 2318,4703 2318,4704 2319,4704 2319,4705 2319,4705 2320,4705 2320,4706 2321,4707 2321,4707 2321,4707 2322,4708 2322,4708 2324,4709 2324,4710 2325,4710 2325,4710 2325,4710 2326,4711 2326,4712 2327,4712 2327,4713 2327,4713 2327,4713 2328,4714 2328,4716 2329,4717 L 2329,4717 C 2332,4720 2334,4724 2338,4728 2338,4728 2338,4728 2338,4729 2339,4729 2339,4731 2340,4732 L 2340,4733 C 2340,4734 2341,4734 2341,4735 L 2342,4736 C 2342,4737 2343,4738 2343,4738 2343,4739 2343,4739 2344,4739 2344,4740 2344,4741 2345,4742 2345,4742 2344,4743 2345,4743 2346,4744 2346,4745 2346,4746 2347,4746 2347,4747 2347,4747 2347,4748 2348,4749 2348,4750 L 2348,4750 C 2349,4751 2349,4752 2350,4753 L 2350,4753 C 2353,4760 2355,4765 2357,4771 L 2357,4771 C 2357,4772 2357,4774 2357,4775 2358,4776 2358,4776 2358,4776 2358,4777 2358,4778 2358,4779 2359,4779 2359,4780 2359,4780 2359,4781 2359,4782 2359,4783 2359,4783 2359,4783 2359,4784 2360,4784 2360,4785 2360,4786 2360,4788 2360,4788 2360,4788 2360,4789 2361,4790 2361,4791 L 2361,4792 C 2361,4793 2361,4794 2361,4795 2363,4804 2363,4812 2363,4821 2363,4919 2285,4998 2187,4998 2089,4998 2011,4919 2011,4821 2011,4812 2011,4804 2012,4795 Z"/>
       </g>
      </g>
      <g class="com.sun.star.drawing.ClosedBezierShape">
       <g id="id8">
        <rect class="BoundingBox" stroke="none" fill="none" x="1509" y="1970" width="2248" height="1895"/>
        <path fill="rgb(167,41,115)" stroke="none" d="M 3644,3863 L 1622,3863 C 1559,3863 1510,3812 1510,3751 L 1510,2083 C 1510,2020 1559,1971 1622,1971 L 3644,1971 C 3705,1971 3756,2020 3756,2083 L 3756,3751 C 3756,3812 3705,3863 3644,3863 Z"/>
       </g>
      </g>
      <g class="com.sun.star.drawing.ClosedBezierShape">
       <g id="id9">
        <rect class="BoundingBox" stroke="none" fill="none" x="1509" y="1885" width="2248" height="1894"/>
        <path fill="rgb(239,90,157)" stroke="none" d="M 3644,3777 L 1622,3777 C 1559,3777 1510,3728 1510,3665 L 1510,1998 C 1510,1935 1559,1886 1622,1886 L 3644,1886 C 3705,1886 3756,1935 3756,1998 L 3756,3665 C 3756,3728 3705,3777 3644,3777 Z"/>
       </g>
      </g>
      <g class="com.sun.star.drawing.ClosedBezierShape">
       <g id="id10">
        <rect class="BoundingBox" stroke="none" fill="none" x="1509" y="1885" width="2248" height="333"/>
        <path fill="rgb(167,41,115)" stroke="none" d="M 3644,1886 L 1622,1886 C 1559,1886 1510,1935 1510,1998 L 1510,2216 3756,2216 3756,1998 C 3756,1935 3705,1886 3644,1886 Z"/>
       </g>
      </g>
      <g class="com.sun.star.drawing.ClosedBezierShape">
       <g id="id11">
        <rect class="BoundingBox" stroke="none" fill="none" x="1653" y="1999" width="104" height="105"/>
        <path fill="rgb(255,255,255)" stroke="none" d="M 1756,2050 C 1756,2080 1734,2102 1705,2102 1677,2102 1654,2079 1654,2050 1654,2022 1677,2000 1705,2000 1734,2000 1756,2023 1756,2050 Z"/>
       </g>
      </g>
      <g class="com.sun.star.drawing.ClosedBezierShape">
       <g id="id12">
        <rect class="BoundingBox" stroke="none" fill="none" x="1849" y="1999" width="104" height="105"/>
        <path fill="rgb(255,255,255)" stroke="none" d="M 1952,2050 C 1952,2080 1930,2102 1901,2102 1873,2102 1849,2079 1849,2050 1849,2022 1873,2000 1901,2000 1930,2000 1952,2023 1952,2050 Z"/>
       </g>
      </g>
      <g class="com.sun.star.drawing.ClosedBezierShape">
       <g id="id13">
        <rect class="BoundingBox" stroke="none" fill="none" x="2045" y="1999" width="104" height="105"/>
        <path fill="rgb(255,255,255)" stroke="none" d="M 2147,2050 C 2147,2080 2125,2102 2097,2102 2068,2102 2045,2079 2045,2050 2045,2022 2068,2000 2097,2000 2125,2000 2147,2023 2147,2050 Z"/>
       </g>
      </g>
      <g class="com.sun.star.drawing.ClosedBezierShape">
       <g id="id14">
        <rect class="BoundingBox" stroke="none" fill="none" x="1670" y="2382" width="565" height="181"/>
        <path fill="rgb(254,222,58)" stroke="none" d="M 2144,2561 L 1761,2561 C 1712,2561 1671,2521 1671,2472 L 1671,2472 C 1671,2422 1712,2383 1761,2383 L 2144,2383 C 2193,2383 2233,2422 2233,2472 L 2233,2472 C 2233,2521 2193,2561 2144,2561 Z"/>
       </g>
      </g>
      <g class="com.sun.star.drawing.ClosedBezierShape">
       <g id="id15">
        <rect class="BoundingBox" stroke="none" fill="none" x="2380" y="2382" width="946" height="181"/>
        <path fill="rgb(255,255,255)" stroke="none" d="M 3234,2561 L 2470,2561 C 2420,2561 2381,2521 2381,2472 L 2381,2472 C 2381,2422 2420,2383 2470,2383 L 3234,2383 C 3284,2383 3324,2422 3324,2472 L 3324,2472 C 3324,2521 3284,2561 3234,2561 Z"/>
       </g>
      </g>
      <g class="com.sun.star.drawing.ClosedBezierShape">
       <g id="id16">
        <rect class="BoundingBox" stroke="none" fill="none" x="1670" y="2727" width="853" height="181"/>
        <path fill="rgb(167,41,115)" stroke="none" d="M 2432,2906 L 1761,2906 C 1712,2906 1671,2866 1671,2817 L 1671,2817 C 1671,2768 1712,2728 1761,2728 L 2432,2728 C 2482,2728 2521,2768 2521,2817 L 2521,2817 C 2521,2866 2482,2906 2432,2906 Z"/>
       </g>
      </g>
      <g class="com.sun.star.drawing.ClosedBezierShape">
       <g id="id17">
        <rect class="BoundingBox" stroke="none" fill="none" x="2657" y="2727" width="481" height="181"/>
        <path fill="rgb(167,41,115)" stroke="none" d="M 3047,2906 L 2747,2906 C 2698,2906 2658,2866 2658,2817 L 2658,2817 C 2658,2768 2698,2728 2747,2728 L 3047,2728 C 3096,2728 3136,2768 3136,2817 L 3136,2817 C 3136,2866 3096,2906 3047,2906 Z"/>
       </g>
      </g>
      <g class="com.sun.star.drawing.ClosedBezierShape">
       <g id="id18">
        <rect class="BoundingBox" stroke="none" fill="none" x="1670" y="3072" width="267" height="181"/>
        <path fill="rgb(167,41,115)" stroke="none" d="M 1845,3251 L 1761,3251 C 1712,3251 1671,3212 1671,3162 L 1671,3162 C 1671,3113 1712,3073 1761,3073 L 1845,3073 C 1895,3073 1935,3113 1935,3162 L 1935,3162 C 1935,3212 1895,3251 1845,3251 Z"/>
       </g>
      </g>
      <g class="com.sun.star.drawing.ClosedBezierShape">
       <g id="id19">
        <rect class="BoundingBox" stroke="none" fill="none" x="2045" y="3072" width="764" height="181"/>
        <path fill="rgb(167,41,115)" stroke="none" d="M 2718,3251 L 2134,3251 C 2085,3251 2045,3212 2045,3162 L 2045,3162 C 2045,3113 2085,3073 2134,3073 L 2718,3073 C 2768,3073 2807,3113 2807,3162 L 2807,3162 C 2807,3212 2768,3251 2718,3251 Z"/>
       </g>
      </g>
      <g class="com.sun.star.drawing.ClosedBezierShape">
       <g id="id20">
        <rect class="BoundingBox" stroke="none" fill="none" x="1670" y="3417" width="853" height="181"/>
        <path fill="rgb(254,222,58)" stroke="none" d="M 2432,3596 L 1761,3596 C 1712,3596 1671,3557 1671,3507 L 1671,3507 C 1671,3458 1712,3418 1761,3418 L 2432,3418 C 2482,3418 2521,3458 2521,3507 L 2521,3507 C 2521,3557 2482,3596 2432,3596 Z"/>
       </g>
      </g>
      <g class="com.sun.star.drawing.ClosedBezierShape">
       <g id="id21">
        <rect class="BoundingBox" stroke="none" fill="none" x="3053" y="3116" width="2248" height="1895"/>
        <path fill="rgb(19,109,160)" stroke="none" d="M 5187,5009 L 3165,5009 C 3104,5009 3053,4958 3053,4897 L 3053,3229 C 3053,3167 3104,3117 3165,3117 L 5187,3117 C 5250,3117 5299,3167 5299,3229 L 5299,4897 C 5299,4958 5250,5009 5187,5009 Z"/>
       </g>
      </g>
      <g class="com.sun.star.drawing.ClosedBezierShape">
       <g id="id22">
        <rect class="BoundingBox" stroke="none" fill="none" x="3053" y="3031" width="2248" height="1894"/>
        <path fill="rgb(28,174,228)" stroke="none" d="M 5187,4923 L 3165,4923 C 3104,4923 3053,4874 3053,4811 L 3053,3144 C 3053,3081 3104,3032 3165,3032 L 5187,3032 C 5250,3032 5299,3081 5299,3144 L 5299,4811 C 5299,4874 5250,4923 5187,4923 Z"/>
       </g>
      </g>
      <g class="com.sun.star.drawing.ClosedBezierShape">
       <g id="id23">
        <rect class="BoundingBox" stroke="none" fill="none" x="3394" y="3784" width="473" height="792"/>
        <path fill="rgb(0,154,221)" stroke="none" d="M 3790,4575 C 3771,4575 3751,4567 3737,4552 L 3417,4233 C 3403,4218 3394,4199 3394,4179 3394,4159 3403,4140 3417,4126 L 3737,3806 C 3766,3777 3814,3777 3843,3806 3873,3835 3873,3882 3843,3912 L 3576,4179 3843,4447 C 3873,4476 3873,4523 3843,4552 3829,4567 3809,4575 3790,4575 Z"/>
       </g>
      </g>
      <g class="com.sun.star.drawing.ClosedBezierShape">
       <g id="id24">
        <rect class="BoundingBox" stroke="none" fill="none" x="4488" y="3784" width="472" height="792"/>
        <path fill="rgb(0,154,221)" stroke="none" d="M 4564,4575 C 4545,4575 4525,4567 4510,4552 4481,4523 4481,4476 4510,4447 L 4778,4179 4510,3912 C 4481,3882 4481,3835 4510,3806 4540,3777 4588,3777 4617,3806 L 4937,4126 C 4951,4140 4958,4159 4958,4179 4958,4199 4951,4218 4937,4233 L 4617,4552 C 4602,4567 4583,4575 4564,4575 Z"/>
       </g>
      </g>
      <g class="com.sun.star.drawing.ClosedBezierShape">
       <g id="id25">
        <rect class="BoundingBox" stroke="none" fill="none" x="3939" y="3783" width="477" height="793"/>
        <path fill="rgb(0,154,221)" stroke="none" d="M 4015,4575 C 4003,4575 3991,4571 3980,4566 3944,4548 3929,4503 3947,4465 L 4273,3825 C 4291,3788 4336,3773 4374,3792 4410,3810 4425,3855 4406,3893 L 4081,4534 C 4068,4560 4041,4575 4015,4575 Z"/>
       </g>
      </g>
      <g class="com.sun.star.drawing.ClosedBezierShape">
       <g id="id26">
        <rect class="BoundingBox" stroke="none" fill="none" x="3394" y="3706" width="473" height="793"/>
        <path fill="rgb(255,255,255)" stroke="none" d="M 3790,4497 C 3771,4497 3751,4490 3737,4475 L 3417,4154 C 3403,4140 3394,4122 3394,4102 3394,4082 3403,4063 3417,4048 L 3737,3729 C 3766,3699 3814,3699 3843,3729 3873,3758 3873,3805 3843,3834 L 3576,4102 3843,4368 C 3873,4398 3873,4446 3843,4475 3829,4490 3809,4497 3790,4497 Z"/>
       </g>
      </g>
      <g class="com.sun.star.drawing.ClosedBezierShape">
       <g id="id27">
        <rect class="BoundingBox" stroke="none" fill="none" x="3481" y="3706" width="386" height="793"/>
        <path fill="rgb(230,231,232)" stroke="none" d="M 3576,4102 L 3843,3834 C 3873,3805 3873,3758 3843,3729 3816,3701 3772,3699 3743,3723 3745,3724 3746,3727 3748,3729 3778,3758 3778,3805 3748,3834 L 3481,4102 3748,4368 C 3778,4398 3778,4446 3748,4475 3747,4477 3745,4478 3743,4480 3757,4491 3773,4497 3790,4497 3809,4497 3829,4490 3843,4475 3873,4446 3873,4398 3843,4368 L 3576,4102 Z"/>
       </g>
      </g>
      <g class="com.sun.star.drawing.ClosedBezierShape">
       <g id="id28">
        <rect class="BoundingBox" stroke="none" fill="none" x="4488" y="3706" width="472" height="793"/>
        <path fill="rgb(255,255,255)" stroke="none" d="M 4564,4497 C 4545,4497 4525,4490 4510,4475 4481,4446 4481,4398 4510,4368 L 4778,4102 4510,3834 C 4481,3805 4481,3758 4510,3729 4540,3699 4588,3699 4617,3729 L 4937,4048 C 4951,4063 4958,4082 4958,4102 4958,4122 4951,4140 4937,4154 L 4617,4475 C 4602,4490 4583,4497 4564,4497 Z"/>
       </g>
      </g>
      <g class="com.sun.star.drawing.ClosedBezierShape">
       <g id="id29">
        <rect class="BoundingBox" stroke="none" fill="none" x="4488" y="3706" width="386" height="793"/>
        <path fill="rgb(230,231,232)" stroke="none" d="M 4605,4475 C 4576,4446 4576,4398 4605,4368 L 4872,4102 4605,3834 C 4576,3805 4576,3758 4605,3729 4607,3726 4609,3724 4611,3723 4581,3699 4538,3701 4510,3729 4481,3758 4481,3805 4510,3834 L 4778,4102 4510,4368 C 4481,4398 4481,4446 4510,4475 4525,4490 4545,4497 4564,4497 4580,4497 4597,4491 4611,4480 4609,4478 4607,4477 4605,4475 Z"/>
       </g>
      </g>
      <g class="com.sun.star.drawing.ClosedBezierShape">
       <g id="id30">
        <rect class="BoundingBox" stroke="none" fill="none" x="3939" y="3706" width="477" height="793"/>
        <path fill="rgb(255,255,255)" stroke="none" d="M 4015,4497 C 4003,4497 3991,4494 3980,4489 3944,4469 3929,4424 3947,4388 L 4273,3747 C 4291,3710 4336,3695 4374,3715 4410,3733 4425,3778 4406,3816 L 4081,4455 C 4068,4482 4041,4497 4015,4497 Z"/>
       </g>
      </g>
      <g class="com.sun.star.drawing.ClosedBezierShape">
       <g id="id31">
        <rect class="BoundingBox" stroke="none" fill="none" x="3941" y="3708" width="475" height="791"/>
        <path fill="rgb(230,231,232)" stroke="none" d="M 4374,3715 C 4368,3711 4363,3709 4358,3708 4362,3725 4360,3744 4351,3760 L 4026,4401 C 4012,4426 3987,4441 3959,4441 3953,4441 3947,4441 3941,4439 3946,4460 3960,4478 3980,4489 3991,4494 4003,4497 4015,4497 4041,4497 4068,4482 4081,4455 L 4407,3816 C 4425,3778 4410,3733 4374,3715 Z"/>
       </g>
      </g>
      <g class="com.sun.star.drawing.ClosedBezierShape">
       <g id="id32">
        <rect class="BoundingBox" stroke="none" fill="none" x="3053" y="3031" width="2248" height="333"/>
        <path fill="rgb(19,109,160)" stroke="none" d="M 5187,3032 L 3165,3032 C 3104,3032 3053,3081 3053,3144 L 3053,3362 5299,3362 5299,3144 C 5299,3081 5250,3032 5187,3032 Z"/>
       </g>
      </g>
      <g class="com.sun.star.drawing.ClosedBezierShape">
       <g id="id33">
        <rect class="BoundingBox" stroke="none" fill="none" x="3198" y="3145" width="104" height="105"/>
        <path fill="rgb(255,255,255)" stroke="none" d="M 3301,3198 C 3301,3226 3278,3248 3249,3248 3221,3248 3199,3226 3199,3198 3199,3169 3221,3146 3249,3146 3278,3146 3301,3169 3301,3198 Z"/>
       </g>
      </g>
      <g class="com.sun.star.drawing.ClosedBezierShape">
       <g id="id34">
        <rect class="BoundingBox" stroke="none" fill="none" x="3394" y="3145" width="104" height="105"/>
        <path fill="rgb(255,255,255)" stroke="none" d="M 3496,3198 C 3496,3226 3473,3248 3445,3248 3416,3248 3394,3226 3394,3198 3394,3169 3416,3146 3445,3146 3473,3146 3496,3169 3496,3198 Z"/>
       </g>
      </g>
      <g class="com.sun.star.drawing.ClosedBezierShape">
       <g id="id35">
        <rect class="BoundingBox" stroke="none" fill="none" x="3589" y="3145" width="105" height="105"/>
        <path fill="rgb(255,255,255)" stroke="none" d="M 3692,3198 C 3692,3226 3669,3248 3640,3248 3612,3248 3590,3226 3590,3198 3590,3169 3612,3146 3640,3146 3669,3146 3692,3169 3692,3198 Z"/>
       </g>
      </g>
      <g class="com.sun.star.drawing.ClosedBezierShape">
       <g id="id36">
        <rect class="BoundingBox" stroke="none" fill="none" x="4081" y="1601" width="1083" height="1173"/>
        <path fill="rgb(255,255,255)" stroke="none" d="M 5037,2227 C 5038,2214 5039,2200 5039,2187 5039,2174 5038,2160 5037,2147 L 5147,2013 C 5165,1991 5168,1959 5153,1934 L 5106,1853 C 5092,1828 5063,1815 5035,1819 L 4864,1847 C 4842,1832 4820,1818 4795,1808 L 4734,1646 C 4724,1618 4698,1601 4669,1601 L 4575,1601 C 4546,1601 4520,1618 4510,1646 L 4449,1808 C 4425,1818 4402,1832 4380,1847 L 4209,1819 C 4181,1815 4152,1828 4138,1853 L 4091,1934 C 4077,1959 4079,1991 4097,2013 L 4207,2147 C 4206,2160 4205,2174 4205,2187 4205,2200 4206,2214 4207,2227 L 4097,2360 C 4079,2383 4077,2414 4091,2440 L 4138,2520 C 4152,2546 4181,2559 4209,2555 L 4380,2527 C 4402,2542 4425,2556 4449,2567 L 4510,2728 C 4520,2755 4546,2773 4575,2773 L 4669,2773 C 4698,2773 4724,2755 4734,2728 L 4795,2567 C 4820,2556 4842,2542 4864,2527 L 5035,2555 C 5063,2559 5092,2546 5106,2520 L 5153,2440 C 5168,2414 5165,2383 5147,2360 L 5037,2227 Z M 4798,2187 C 4798,2285 4720,2363 4622,2363 4524,2363 4446,2285 4446,2187 4446,2089 4524,2011 4622,2011 4720,2011 4798,2089 4798,2187 Z"/>
       </g>
      </g>
      <g class="com.sun.star.drawing.ClosedBezierShape">
       <g id="id37">
        <rect class="BoundingBox" stroke="none" fill="none" x="4081" y="1942" width="128" height="205"/>
        <path fill="rgb(188,190,192)" stroke="none" d="M 4205,2145 C 4205,2142 4205,2138 4205,2134 4205,2121 4206,2107 4207,2095 L 4097,1961 C 4093,1956 4090,1949 4087,1943 4077,1967 4081,1993 4097,2013 L 4205,2145 Z"/>
       </g>
      </g>
      <g class="com.sun.star.drawing.ClosedBezierShape">
       <g id="id38">
        <rect class="BoundingBox" stroke="none" fill="none" x="4445" y="1958" width="355" height="205"/>
        <path fill="rgb(188,190,192)" stroke="none" d="M 4622,1958 C 4524,1958 4446,2038 4446,2134 4446,2144 4446,2153 4448,2161 4460,2075 4533,2011 4622,2011 4711,2011 4784,2075 4797,2161 4798,2153 4798,2144 4798,2134 4798,2038 4720,1958 4622,1958 Z"/>
       </g>
      </g>
      <g class="com.sun.star.drawing.ClosedBezierShape">
       <g id="id39">
        <rect class="BoundingBox" stroke="none" fill="none" x="5036" y="2161" width="5" height="18"/>
        <path fill="rgb(188,190,192)" stroke="none" d="M 5037,2175 L 5039,2177 C 5039,2172 5039,2167 5038,2161 5038,2166 5038,2170 5037,2175 Z"/>
       </g>
      </g>
      <g class="com.sun.star.drawing.ClosedBezierShape">
       <g id="id40">
        <rect class="BoundingBox" stroke="none" fill="none" x="4204" y="2161" width="5" height="18"/>
        <path fill="rgb(188,190,192)" stroke="none" d="M 4207,2175 C 4207,2170 4206,2166 4206,2161 4206,2167 4205,2172 4205,2177 L 4207,2175 Z"/>
       </g>
      </g>
      <g class="com.sun.star.drawing.ClosedBezierShape">
       <g id="id41">
        <rect class="BoundingBox" stroke="none" fill="none" x="5036" y="1942" width="128" height="205"/>
        <path fill="rgb(188,190,192)" stroke="none" d="M 5147,1961 L 5037,2095 C 5038,2107 5039,2121 5039,2134 5039,2138 5039,2142 5039,2145 L 5147,2013 C 5163,1993 5167,1967 5157,1943 5155,1949 5151,1956 5147,1961 Z"/>
       </g>
      </g>
      <g class="com.sun.star.drawing.ClosedBezierShape">
       <g id="id42">
        <rect class="BoundingBox" stroke="none" fill="none" x="4081" y="2378" width="1083" height="396"/>
        <path fill="rgb(188,190,192)" stroke="none" d="M 5153,2387 L 5106,2469 C 5092,2493 5063,2507 5035,2502 L 4864,2474 C 4842,2490 4820,2503 4795,2514 L 4734,2676 C 4724,2703 4698,2720 4669,2720 L 4575,2720 C 4546,2720 4520,2703 4510,2676 L 4449,2514 C 4425,2503 4402,2490 4380,2474 L 4209,2502 C 4181,2507 4152,2493 4138,2469 L 4091,2387 C 4090,2384 4088,2382 4087,2378 4079,2398 4080,2420 4091,2440 L 4138,2520 C 4152,2546 4181,2559 4209,2555 L 4380,2527 C 4402,2542 4425,2556 4449,2567 L 4510,2728 C 4520,2755 4546,2773 4575,2773 L 4669,2773 C 4698,2773 4724,2755 4734,2728 L 4795,2567 C 4820,2556 4842,2542 4864,2527 L 5035,2555 C 5063,2559 5092,2546 5106,2520 L 5153,2440 C 5164,2420 5165,2398 5157,2378 5156,2382 5155,2384 5153,2387 Z"/>
       </g>
      </g>
      <g class="com.sun.star.drawing.ClosedBezierShape">
       <g id="id43">
        <rect class="BoundingBox" stroke="none" fill="none" x="4204" y="1769" width="837" height="837"/>
        <path fill="rgb(230,231,232)" stroke="none" d="M 4622,1770 C 4392,1770 4205,1957 4205,2187 4205,2417 4392,2604 4622,2604 4852,2604 5039,2417 5039,2187 5039,1957 4852,1770 4622,1770 Z M 4622,2363 C 4524,2363 4446,2285 4446,2187 4446,2089 4524,2011 4622,2011 4720,2011 4798,2089 4798,2187 4798,2285 4720,2363 4622,2363 Z"/>
       </g>
      </g>
      <g class="com.sun.star.drawing.ClosedBezierShape">
       <g id="id44">
        <rect class="BoundingBox" stroke="none" fill="none" x="4353" y="1917" width="540" height="540"/>
        <path fill="rgb(188,190,192)" stroke="none" d="M 4622,1917 C 4474,1917 4353,2039 4353,2187 4353,2335 4474,2456 4622,2456 4771,2456 4892,2335 4892,2187 4892,2038 4771,1917 4622,1917 Z M 4622,2363 C 4524,2363 4446,2285 4446,2187 4446,2089 4524,2011 4622,2011 4720,2011 4798,2089 4798,2187 4798,2285 4720,2363 4622,2363 Z"/>
       </g>
      </g>
      <g class="com.sun.star.drawing.ClosedBezierShape">
       <g id="id45">
        <rect class="BoundingBox" stroke="none" fill="none" x="1646" y="4036" width="1083" height="1173"/>
        <path fill="rgb(255,255,255)" stroke="none" d="M 2602,4662 C 2603,4649 2604,4635 2604,4622 2604,4609 2603,4595 2602,4582 L 2712,4449 C 2730,4426 2732,4395 2718,4369 L 2671,4289 C 2657,4263 2628,4250 2600,4254 L 2429,4282 C 2407,4267 2384,4253 2360,4242 L 2299,4081 C 2289,4054 2263,4036 2234,4036 L 2140,4036 C 2111,4036 2085,4054 2075,4081 L 2014,4242 C 1989,4253 1967,4267 1945,4282 L 1774,4254 C 1746,4250 1717,4263 1703,4289 L 1656,4369 C 1641,4395 1644,4426 1662,4449 L 1772,4582 C 1771,4595 1770,4609 1770,4622 1770,4635 1771,4649 1772,4662 L 1662,4796 C 1644,4818 1641,4850 1656,4875 L 1703,4956 C 1717,4981 1746,4994 1774,4990 L 1945,4962 C 1967,4977 1989,4991 2014,5001 L 2075,5163 C 2085,5191 2111,5208 2140,5208 L 2234,5208 C 2263,5208 2289,5191 2299,5163 L 2360,5001 C 2384,4991 2407,4977 2429,4962 L 2600,4990 C 2628,4994 2657,4981 2671,4956 L 2718,4875 C 2732,4850 2730,4818 2712,4796 L 2602,4662 Z M 2363,4622 C 2363,4720 2285,4798 2187,4798 2089,4798 2011,4720 2011,4622 2011,4524 2089,4446 2187,4446 2285,4446 2363,4524 2363,4622 Z"/>
       </g>
      </g>
      <g class="com.sun.star.drawing.ClosedBezierShape">
       <g id="id46">
        <rect class="BoundingBox" stroke="none" fill="none" x="1646" y="4379" width="128" height="203"/>
        <path fill="rgb(188,190,192)" stroke="none" d="M 1770,4580 C 1770,4577 1770,4574 1770,4570 1770,4556 1771,4544 1772,4530 L 1662,4396 C 1658,4391 1654,4385 1652,4379 1642,4402 1646,4428 1662,4449 L 1770,4580 Z"/>
       </g>
      </g>
      <g class="com.sun.star.drawing.ClosedBezierShape">
       <g id="id47">
        <rect class="BoundingBox" stroke="none" fill="none" x="2010" y="4393" width="355" height="205"/>
        <path fill="rgb(188,190,192)" stroke="none" d="M 2187,4393 C 2089,4393 2011,4473 2011,4570 2011,4579 2011,4588 2012,4596 2025,4511 2098,4446 2187,4446 2276,4446 2349,4511 2361,4596 2363,4588 2363,4579 2363,4570 2363,4473 2285,4393 2187,4393 Z"/>
       </g>
      </g>
      <g class="com.sun.star.drawing.ClosedBezierShape">
       <g id="id48">
        <rect class="BoundingBox" stroke="none" fill="none" x="2601" y="4596" width="5" height="18"/>
        <path fill="rgb(188,190,192)" stroke="none" d="M 2602,4610 L 2604,4612 C 2604,4607 2603,4602 2603,4596 2603,4600 2602,4606 2602,4610 Z"/>
       </g>
      </g>
      <g class="com.sun.star.drawing.ClosedBezierShape">
       <g id="id49">
        <rect class="BoundingBox" stroke="none" fill="none" x="1769" y="4596" width="5" height="18"/>
        <path fill="rgb(188,190,192)" stroke="none" d="M 1772,4610 C 1771,4606 1771,4600 1771,4596 1770,4602 1770,4607 1770,4612 L 1772,4610 Z"/>
       </g>
      </g>
      <g class="com.sun.star.drawing.ClosedBezierShape">
       <g id="id50">
        <rect class="BoundingBox" stroke="none" fill="none" x="2601" y="4379" width="128" height="203"/>
        <path fill="rgb(188,190,192)" stroke="none" d="M 2712,4396 L 2602,4530 C 2603,4544 2604,4556 2604,4570 2604,4574 2604,4577 2604,4580 L 2712,4449 C 2728,4428 2732,4402 2722,4379 2719,4385 2716,4391 2712,4396 Z"/>
       </g>
      </g>
      <g class="com.sun.star.drawing.ClosedBezierShape">
       <g id="id51">
        <rect class="BoundingBox" stroke="none" fill="none" x="1646" y="4813" width="1083" height="396"/>
        <path fill="rgb(188,190,192)" stroke="none" d="M 2718,4822 L 2671,4904 C 2657,4928 2628,4942 2600,4938 L 2429,4909 C 2407,4925 2384,4938 2360,4950 L 2299,5111 C 2289,5138 2263,5156 2234,5156 L 2140,5156 C 2111,5156 2085,5138 2075,5111 L 2014,4950 C 1989,4938 1967,4925 1945,4909 L 1774,4938 C 1746,4942 1717,4928 1703,4904 L 1656,4822 C 1654,4820 1653,4817 1652,4813 1644,4833 1645,4855 1656,4875 L 1703,4956 C 1717,4981 1746,4994 1774,4990 L 1945,4962 C 1967,4977 1989,4991 2014,5001 L 2075,5163 C 2085,5191 2111,5208 2140,5208 L 2234,5208 C 2263,5208 2289,5191 2299,5163 L 2360,5001 C 2384,4991 2407,4977 2429,4962 L 2600,4990 C 2628,4994 2657,4981 2671,4956 L 2718,4875 C 2729,4855 2730,4833 2722,4813 2721,4817 2719,4820 2718,4822 Z"/>
       </g>
      </g>
      <g class="com.sun.star.drawing.ClosedBezierShape">
       <g id="id52">
        <rect class="BoundingBox" stroke="none" fill="none" x="1769" y="4204" width="837" height="837"/>
        <path fill="rgb(230,231,232)" stroke="none" d="M 2187,4205 C 1957,4205 1770,4392 1770,4622 1770,4852 1957,5039 2187,5039 2417,5039 2604,4852 2604,4622 2604,4392 2417,4205 2187,4205 Z M 2187,4798 C 2089,4798 2011,4720 2011,4622 2011,4524 2089,4446 2187,4446 2285,4446 2363,4524 2363,4622 2363,4720 2285,4798 2187,4798 Z"/>
       </g>
      </g>
      <g class="com.sun.star.drawing.ClosedBezierShape">
       <g id="id53">
        <rect class="BoundingBox" stroke="none" fill="none" x="1917" y="4353" width="540" height="540"/>
        <path fill="rgb(188,190,192)" stroke="none" d="M 2187,4353 C 2038,4353 1917,4474 1917,4622 1917,4770 2038,4892 2187,4892 2336,4892 2456,4770 2456,4622 2456,4474 2335,4353 2187,4353 Z M 2187,4798 C 2089,4798 2011,4720 2011,4622 2011,4524 2089,4446 2187,4446 2285,4446 2363,4524 2363,4622 2363,4720 2285,4798 2187,4798 Z"/>
       </g>
      </g>
     </g>
    </g>
   </g>
  </g>
 </g>
</svg>